<mxfile host="app.diagrams.net" modified="2023-01-09T07:35:58.984Z" agent="5.0 (Macintosh; Intel Mac OS X 10_15_7) AppleWebKit/537.36 (KHTML, like Gecko) Chrome/108.0.0.0 Safari/537.36" etag="2UBQFF34SbsQFgVvL4vS" version="20.8.3" type="github">
  <diagram id="kgpKYQtTHZ0yAKxKKP6v" name="Page-1">
    <mxGraphModel dx="1024" dy="651" grid="1" gridSize="10" guides="1" tooltips="1" connect="1" arrows="1" fold="1" page="1" pageScale="1" pageWidth="850" pageHeight="1100" math="0" shadow="0">
      <root>
        <mxCell id="0" />
        <mxCell id="1" parent="0" />
        <mxCell id="lFLhv9FXB8yPg1fXgmIV-2" value="Release&lt;br&gt;&lt;strike&gt;v0.12.6&lt;/strike&gt;&lt;br&gt;v1.0.0" style="rounded=1;whiteSpace=wrap;html=1;fillColor=none;dashed=1;" vertex="1" parent="1">
          <mxGeometry x="420" y="160" width="100" height="60" as="geometry" />
        </mxCell>
        <mxCell id="lFLhv9FXB8yPg1fXgmIV-3" value="Release&lt;br&gt;v1.0.0" style="rounded=1;whiteSpace=wrap;html=1;fillColor=none;dashed=1;" vertex="1" parent="1">
          <mxGeometry x="270" y="160" width="100" height="60" as="geometry" />
        </mxCell>
        <mxCell id="lFLhv9FXB8yPg1fXgmIV-4" value="Build&lt;br&gt;dev-f3b95e7a" style="rounded=1;whiteSpace=wrap;html=1;fillColor=none;dashed=1;" vertex="1" parent="1">
          <mxGeometry x="120" y="160" width="100" height="60" as="geometry" />
        </mxCell>
        <mxCell id="lFLhv9FXB8yPg1fXgmIV-5" value="dev" style="text;html=1;strokeColor=none;fillColor=none;align=center;verticalAlign=middle;whiteSpace=wrap;rounded=0;dashed=1;fontStyle=1;fontSize=15;" vertex="1" parent="1">
          <mxGeometry x="140" y="130" width="60" height="30" as="geometry" />
        </mxCell>
        <mxCell id="lFLhv9FXB8yPg1fXgmIV-7" value="staging" style="text;html=1;strokeColor=none;fillColor=none;align=center;verticalAlign=middle;whiteSpace=wrap;rounded=0;dashed=1;fontStyle=1;fontSize=15;" vertex="1" parent="1">
          <mxGeometry x="290" y="130" width="60" height="30" as="geometry" />
        </mxCell>
        <mxCell id="lFLhv9FXB8yPg1fXgmIV-8" value="prod" style="text;html=1;strokeColor=none;fillColor=none;align=center;verticalAlign=middle;whiteSpace=wrap;rounded=0;dashed=1;fontStyle=1;fontSize=15;" vertex="1" parent="1">
          <mxGeometry x="440" y="130" width="60" height="30" as="geometry" />
        </mxCell>
        <mxCell id="lFLhv9FXB8yPg1fXgmIV-9" value="" style="curved=1;endArrow=classic;html=1;rounded=0;fontSize=15;exitX=0.9;exitY=0.833;exitDx=0;exitDy=0;exitPerimeter=0;entryX=0.1;entryY=0.833;entryDx=0;entryDy=0;entryPerimeter=0;" edge="1" parent="1" source="lFLhv9FXB8yPg1fXgmIV-3" target="lFLhv9FXB8yPg1fXgmIV-2">
          <mxGeometry width="50" height="50" relative="1" as="geometry">
            <mxPoint x="390" y="50" as="sourcePoint" />
            <mxPoint x="410" y="260" as="targetPoint" />
            <Array as="points">
              <mxPoint x="360" y="240" />
              <mxPoint x="430" y="240" />
            </Array>
          </mxGeometry>
        </mxCell>
        <mxCell id="lFLhv9FXB8yPg1fXgmIV-12" value="promote" style="edgeLabel;html=1;align=center;verticalAlign=middle;resizable=0;points=[];fontSize=15;" vertex="1" connectable="0" parent="lFLhv9FXB8yPg1fXgmIV-9">
          <mxGeometry x="0.0154" y="2" relative="1" as="geometry">
            <mxPoint y="1" as="offset" />
          </mxGeometry>
        </mxCell>
        <mxCell id="lFLhv9FXB8yPg1fXgmIV-10" value="" style="curved=1;endArrow=classic;html=1;rounded=0;fontSize=15;exitX=0.9;exitY=0.833;exitDx=0;exitDy=0;exitPerimeter=0;entryX=0.1;entryY=0.833;entryDx=0;entryDy=0;entryPerimeter=0;" edge="1" parent="1">
          <mxGeometry width="50" height="50" relative="1" as="geometry">
            <mxPoint x="210" y="210" as="sourcePoint" />
            <mxPoint x="280" y="210" as="targetPoint" />
            <Array as="points">
              <mxPoint x="210" y="240.01999999999998" />
              <mxPoint x="280" y="240.01999999999998" />
            </Array>
          </mxGeometry>
        </mxCell>
        <mxCell id="lFLhv9FXB8yPg1fXgmIV-11" value="release" style="edgeLabel;html=1;align=center;verticalAlign=middle;resizable=0;points=[];fontSize=15;" vertex="1" connectable="0" parent="lFLhv9FXB8yPg1fXgmIV-10">
          <mxGeometry x="0.0308" y="1" relative="1" as="geometry">
            <mxPoint as="offset" />
          </mxGeometry>
        </mxCell>
      </root>
    </mxGraphModel>
  </diagram>
</mxfile>
